<svg width="17" height="17" viewBox="0 0 17 17" fill="none" xmlns="http://www.w3.org/2000/svg">
    <path d="M9.28191 15.4688H1.96458C1.70876 15.4688 1.46341 15.3671 1.28252 15.1862C1.10163 15.0053 1 14.76 1 14.5042V1.96458C1 1.70876 1.10163 1.46341 1.28252 1.28252C1.46341 1.10163 1.70876 1 1.96458 1H14.5042C14.76 1 15.0053 1.10163 15.1862 1.28252C15.3671 1.46341 15.4688 1.70876 15.4688 1.96458V9.28191C15.4687 9.53756 15.3672 9.78273 15.1864 9.96355L9.96355 15.1864C9.78273 15.3672 9.53756 15.4687 9.28191 15.4688V15.4688Z" stroke="#4D3D71" stroke-width="1.2" stroke-linecap="round" stroke-linejoin="round" />
    <path d="M9.68115 15.3814V10.6452C9.68115 10.3894 9.78278 10.1441 9.96367 9.96318C10.1446 9.78229 10.3899 9.68066 10.6457 9.68066H15.3818" stroke="#4D3D71" stroke-width="1.2" stroke-linecap="round" stroke-linejoin="round" />
    <path d="M4.8584 4.8584H12.5751" stroke="#4D3D71" stroke-width="1.2" stroke-linecap="round" stroke-linejoin="round" />
    <path d="M4.8584 7.75244H8.23444" stroke="#4D3D71" stroke-width="1.2" stroke-linecap="round" stroke-linejoin="round" />
</svg>
