<svg width="17" height="18" viewBox="0 0 17 18" fill="none" xmlns="http://www.w3.org/2000/svg">
    <path d="M14.9994 6.33395V2.06679C14.9994 1.78386 14.8941 1.51252 14.7065 1.31246C14.519 1.11239 14.2647 1 13.9995 1H1.99996C1.73475 1 1.48041 1.11239 1.29288 1.31246C1.10535 1.51252 1 1.78386 1 2.06679V13.8015C1 14.0844 1.10535 14.3558 1.29288 14.5558C1.48041 14.7559 1.73475 14.8683 1.99996 14.8683H5.99979" stroke="#4D3D71" stroke-width="1.2" stroke-linecap="round" stroke-linejoin="round" />
    <path d="M1 4.2002H14.9994" stroke="#4D3D71" stroke-width="1.2" stroke-linecap="round" stroke-linejoin="round" />
    <path d="M15.586 11.0426L10.4989 16.4668L7.99902 17.0002L8.499 14.3333L13.5861 8.90685C13.8505 8.62478 14.2092 8.46631 14.5831 8.46631C14.957 8.46631 15.3156 8.62478 15.58 8.90685L15.586 8.91325C15.7173 9.05296 15.8214 9.21891 15.8924 9.4016C15.9634 9.58429 16 9.78013 16 9.97791C16 10.1757 15.9634 10.3715 15.8924 10.5542C15.8214 10.7369 15.7173 10.9029 15.586 11.0426V11.0426Z" stroke="#4D3D71" stroke-width="1.2" stroke-linecap="round" stroke-linejoin="round" />
</svg>
