<svg width="18" height="18" viewBox="0 0 18 18" fill="none" xmlns="http://www.w3.org/2000/svg">
    <path d="M5.68506 4.12988C7.77373 7.43163 10.57 10.2279 13.8718 12.3166" stroke="#4D3D71" stroke-width="1.2" stroke-linecap="round" stroke-linejoin="round" />
    <path d="M10.7389 9.99131L12.3718 8.3584C12.9338 7.79543 13.6565 7.42059 14.4403 7.28552C15.0865 7.17521 15.6824 6.86677 16.1455 6.40291C16.7099 5.7921 17.0159 4.98654 16.9995 4.15508C16.9831 3.32361 16.6455 2.53076 16.0574 1.94271C15.4694 1.35466 14.6765 1.01705 13.8451 1.00063C13.0136 0.984209 12.208 1.29026 11.5972 1.85464C11.1331 2.31816 10.8246 2.91457 10.7146 3.56122C10.5788 4.34484 10.204 5.06731 9.64174 5.62972L8.01025 7.26263" stroke="#4D3D71" stroke-width="1.2" stroke-linecap="round" stroke-linejoin="round" />
    <path d="M3.56689 11.8613C3.56689 12.1992 3.63344 12.5337 3.76273 12.8459C3.89203 13.158 4.08153 13.4416 4.32044 13.6805C4.55934 13.9194 4.84296 14.1089 5.1551 14.2382C5.46724 14.3675 5.80179 14.4341 6.13964 14.4341C6.4775 14.4341 6.81205 14.3675 7.12419 14.2382C7.43633 14.1089 7.71995 13.9194 7.95885 13.6805C8.19775 13.4416 8.38726 13.158 8.51656 12.8459C8.64585 12.5337 8.71239 12.1992 8.71239 11.8613C8.71239 11.5235 8.64585 11.1889 8.51656 10.8768C8.38726 10.5646 8.19775 10.281 7.95885 10.0421C7.71995 9.80321 7.43633 9.61371 7.12419 9.48441C6.81205 9.35512 6.4775 9.28857 6.13964 9.28857C5.80179 9.28857 5.46724 9.35512 5.1551 9.48441C4.84296 9.61371 4.55934 9.80321 4.32044 10.0421C4.08153 10.281 3.89203 10.5646 3.76273 10.8768C3.63344 11.1889 3.56689 11.5235 3.56689 11.8613Z" stroke="#4D3D71" stroke-width="1.2" stroke-linecap="round" stroke-linejoin="round" />
    <path d="M11.0435 10.2483C11.4041 11.3486 11.3833 12.5383 10.9846 13.6253C10.5859 14.7123 9.83251 15.6333 8.84604 16.2395C7.85957 16.8457 6.6976 17.1018 5.5477 16.9664C4.3978 16.831 3.32707 16.3121 2.50835 15.4934C1.68963 14.6747 1.1707 13.6039 1.03533 12.454C0.899955 11.3041 1.15604 10.1422 1.76225 9.1557C2.36845 8.16923 3.2894 7.41583 4.37643 7.01712C5.46345 6.61841 6.65313 6.59765 7.7534 6.95819" stroke="#4D3D71" stroke-width="1.2" stroke-linecap="round" stroke-linejoin="round" />
</svg>
