<svg width="21" height="15" viewBox="0 0 21 15" fill="none" xmlns="http://www.w3.org/2000/svg">
    <path d="M10.469 1C9.21599 1.00947 7.97709 1.26567 6.82307 1.75398C5.66905 2.24229 4.62253 2.95314 3.74325 3.84593C2.86398 4.73873 2.16918 5.79598 1.69854 6.95731C1.2279 8.11865 0.99063 9.36132 1.00028 10.6144V12.3625C1.00028 12.6973 1.1333 13.0185 1.37006 13.2552C1.60683 13.492 1.92795 13.625 2.26278 13.625H18.6753C19.0101 13.625 19.3312 13.492 19.568 13.2552C19.8048 13.0185 19.9378 12.6973 19.9378 12.3625V10.6118C19.9566 8.08164 18.9696 5.64758 17.1939 3.84504C15.4182 2.04251 12.9992 1.01913 10.469 1Z" stroke="#4D3D71" stroke-width="1.2" stroke-linecap="round" stroke-linejoin="round" />
    <path d="M7.94385 13.625V12.9937C7.94385 12.3241 8.20987 11.6818 8.6834 11.2083C9.15693 10.7348 9.79918 10.4688 10.4688 10.4688C11.1385 10.4688 11.7808 10.7348 12.2543 11.2083C12.7278 11.6818 12.9938 12.3241 12.9938 12.9937V13.625" stroke="#4D3D71" stroke-width="1.2" stroke-linecap="round" stroke-linejoin="round" />
    <path d="M12.363 4.79004L10.4692 10.4713" stroke="#4D3D71" stroke-width="1.2" stroke-linecap="round" stroke-linejoin="round" />
    <path d="M4.47236 9.8374C4.40994 9.8374 4.34892 9.85591 4.29701 9.89059C4.24511 9.92528 4.20465 9.97457 4.18076 10.0322C4.15688 10.0899 4.15062 10.1534 4.1628 10.2146C4.17498 10.2758 4.20504 10.3321 4.24918 10.3762C4.29332 10.4203 4.34956 10.4504 4.41079 10.4626C4.47201 10.4748 4.53547 10.4685 4.59315 10.4446C4.65082 10.4207 4.70011 10.3803 4.7348 10.3284C4.76948 10.2765 4.78799 10.2155 4.78799 10.153C4.78799 10.0693 4.75473 9.98904 4.69554 9.92985C4.63635 9.87066 4.55607 9.8374 4.47236 9.8374Z" stroke="#4D3D71" stroke-width="1.2" stroke-linecap="round" stroke-linejoin="round" />
    <path d="M5.73457 6.68359C5.67215 6.68359 5.61112 6.7021 5.55922 6.73679C5.50731 6.77147 5.46686 6.82076 5.44297 6.87843C5.41908 6.93611 5.41283 6.99957 5.42501 7.06079C5.43719 7.12202 5.46725 7.17826 5.51139 7.2224C5.55553 7.26654 5.61177 7.2966 5.673 7.30878C5.73422 7.32096 5.79768 7.31471 5.85535 7.29082C5.91303 7.26693 5.96232 7.22647 5.997 7.17457C6.03168 7.12267 6.0502 7.06164 6.0502 6.99922C6.0502 6.91551 6.01694 6.83523 5.95775 6.77604C5.89856 6.71685 5.81828 6.68359 5.73457 6.68359Z" stroke="#4D3D71" stroke-width="1.2" stroke-linecap="round" stroke-linejoin="round" />
    <path d="M16.466 9.8374C16.4036 9.8374 16.3426 9.85591 16.2907 9.89059C16.2388 9.92528 16.1983 9.97457 16.1744 10.0322C16.1505 10.0899 16.1443 10.1534 16.1565 10.2146C16.1686 10.2758 16.1987 10.3321 16.2428 10.3762C16.287 10.4203 16.3432 10.4504 16.4044 10.4626C16.4657 10.4748 16.5291 10.4685 16.5868 10.4446C16.6445 10.4207 16.6938 10.3803 16.7284 10.3284C16.7631 10.2765 16.7816 10.2155 16.7816 10.153C16.7816 10.0693 16.7484 9.98904 16.6892 9.92985C16.63 9.87066 16.5497 9.8374 16.466 9.8374Z" stroke="#4D3D71" stroke-width="1.2" stroke-linecap="round" stroke-linejoin="round" />
    <path d="M15.2033 6.68359C15.1409 6.68359 15.0799 6.7021 15.028 6.73679C14.9761 6.77147 14.9356 6.82076 14.9117 6.87843C14.8878 6.93611 14.8816 6.99957 14.8938 7.06079C14.9059 7.12202 14.936 7.17826 14.9801 7.2224C15.0243 7.26654 15.0805 7.2966 15.1417 7.30878C15.203 7.32096 15.2664 7.31471 15.3241 7.29082C15.3818 7.26693 15.4311 7.22647 15.4658 7.17457C15.5004 7.12267 15.5189 7.06164 15.5189 6.99922C15.5189 6.91551 15.4857 6.83523 15.4265 6.77604C15.3673 6.71685 15.287 6.68359 15.2033 6.68359Z" stroke="#4D3D71" stroke-width="1.2" stroke-linecap="round" stroke-linejoin="round" />
    <path d="M8.25947 4.15869C8.19705 4.15869 8.13602 4.1772 8.08412 4.21188C8.03222 4.24657 7.99176 4.29586 7.96787 4.35353C7.94398 4.4112 7.93773 4.47467 7.94991 4.53589C7.96209 4.59712 7.99215 4.65336 8.03629 4.6975C8.08043 4.74164 8.13667 4.7717 8.1979 4.78388C8.25912 4.79606 8.32258 4.7898 8.38026 4.76592C8.43793 4.74203 8.48722 4.70157 8.5219 4.64967C8.55659 4.59776 8.5751 4.53674 8.5751 4.47432C8.5751 4.39061 8.54184 4.31033 8.48265 4.25114C8.42346 4.19194 8.34318 4.15869 8.25947 4.15869Z" stroke="#4D3D71" stroke-width="1.2" stroke-linecap="round" stroke-linejoin="round" />
</svg>