<svg width="13" height="17" viewBox="0 0 13 17" fill="none" xmlns="http://www.w3.org/2000/svg">
    <path d="M3 1V15.9991" stroke="#4D3D71" stroke-width="1.2" stroke-linecap="round" stroke-linejoin="round" />
    <path d="M4.99975 1V5.49972C4.99817 6.02963 4.78696 6.53739 4.41225 6.91209C4.03754 7.2868 3.52979 7.49801 2.99987 7.49959C2.46996 7.49801 1.9622 7.2868 1.5875 6.91209C1.21279 6.53739 1.00158 6.02963 1 5.49972V1" stroke="#4D3D71" stroke-width="1.2" stroke-linecap="round" stroke-linejoin="round" />
    <path d="M8.99969 10.9991H10.9996C11.1322 11.0042 11.2645 10.9818 11.3881 10.9333C11.5117 10.8848 11.624 10.8114 11.7179 10.7175C11.8117 10.6236 11.8852 10.5113 11.9337 10.3877C11.9821 10.2641 12.0046 10.1319 11.9995 9.99918C11.8922 7.12737 11.7762 4.11955 9.9243 1.2284C9.86493 1.13795 9.77802 1.06901 9.67644 1.03177C9.57485 0.994528 9.46398 0.990971 9.36021 1.02162C9.25645 1.05227 9.1653 1.1155 9.10026 1.20196C9.03521 1.28843 8.99972 1.39352 8.99902 1.50172V15.9988" stroke="#4D3D71" stroke-width="1.2" stroke-linecap="round" stroke-linejoin="round" />
</svg>
