<svg width="17" height="17" viewBox="0 0 17 17" fill="none" xmlns="http://www.w3.org/2000/svg">
    <path d="M8.7505 5.74072C8.70105 5.74072 8.65271 5.75539 8.6116 5.78286C8.57049 5.81033 8.53844 5.84938 8.51952 5.89506C8.5006 5.94074 8.49565 5.99101 8.50529 6.03951C8.51494 6.08801 8.53875 6.13256 8.57371 6.16752C8.60868 6.20248 8.65323 6.2263 8.70172 6.23594C8.75022 6.24559 8.80049 6.24064 8.84617 6.22172C8.89186 6.20279 8.93091 6.17075 8.95838 6.12963C8.98585 6.08852 9.00051 6.04018 9.00051 5.99073C9.00051 5.92443 8.97417 5.86084 8.92728 5.81395C8.8804 5.76706 8.81681 5.74072 8.7505 5.74072Z" stroke="#4D3D71" stroke-width="1.2" stroke-linecap="round" stroke-linejoin="round" />
    <path d="M6.04542 5.74072C5.99597 5.74072 5.94764 5.75539 5.90652 5.78286C5.86541 5.81033 5.83336 5.84938 5.81444 5.89506C5.79552 5.94074 5.79057 5.99101 5.80021 6.03951C5.80986 6.08801 5.83367 6.13256 5.86864 6.16752C5.9036 6.20248 5.94815 6.2263 5.99665 6.23594C6.04514 6.24559 6.09541 6.24064 6.1411 6.22172C6.18678 6.20279 6.22583 6.17075 6.2533 6.12963C6.28077 6.08852 6.29543 6.04018 6.29543 5.99073C6.29543 5.92443 6.26909 5.86084 6.22221 5.81395C6.17532 5.76706 6.11173 5.74072 6.04542 5.74072Z" stroke="#4D3D71" stroke-width="1.2" stroke-linecap="round" stroke-linejoin="round" />
    <path d="M11.4561 5.74072C11.4066 5.74072 11.3583 5.75539 11.3172 5.78286C11.2761 5.81033 11.244 5.84938 11.2251 5.89506C11.2062 5.94074 11.2012 5.99101 11.2109 6.03951C11.2205 6.08801 11.2443 6.13256 11.2793 6.16752C11.3142 6.20248 11.3588 6.2263 11.4073 6.23594C11.4558 6.24559 11.5061 6.24064 11.5517 6.22172C11.5974 6.20279 11.6365 6.17075 11.6639 6.12963C11.6914 6.08852 11.7061 6.04018 11.7061 5.99073C11.7061 5.92443 11.6797 5.86084 11.6329 5.81395C11.586 5.76706 11.5224 5.74072 11.4561 5.74072Z" stroke="#4D3D71" stroke-width="1.2" stroke-linecap="round" stroke-linejoin="round" />
    <path d="M3.50049 14.2408C3.50049 14.5723 3.63219 14.8903 3.86662 15.1247C4.10105 15.3591 4.41901 15.4908 4.75055 15.4908C5.08208 15.4908 5.40004 15.3591 5.63447 15.1247C5.8689 14.8903 6.00061 14.5723 6.00061 14.2408C6.00061 13.9092 5.8689 13.5913 5.63447 13.3569C5.40004 13.1224 5.08208 12.9907 4.75055 12.9907C4.41901 12.9907 4.10105 13.1224 3.86662 13.3569C3.63219 13.5913 3.50049 13.9092 3.50049 14.2408V14.2408Z" stroke="#4D3D71" stroke-width="0.75" stroke-linecap="round" stroke-linejoin="round" />
    <path d="M1.25001 15.4912C1.20056 15.4912 1.15223 15.5059 1.11111 15.5333C1.07 15.5608 1.03795 15.5999 1.01903 15.6455C1.00011 15.6912 0.995157 15.7415 1.0048 15.79C1.01445 15.8385 1.03826 15.883 1.07323 15.918C1.10819 15.953 1.15274 15.9768 1.20124 15.9864C1.24973 15.9961 1.3 15.9911 1.34569 15.9722C1.39137 15.9533 1.43042 15.9212 1.45789 15.8801C1.48536 15.839 1.50002 15.7907 1.50002 15.7412C1.50002 15.6749 1.47368 15.6113 1.4268 15.5644C1.37991 15.5176 1.31632 15.4912 1.25001 15.4912Z" stroke="#4D3D71" stroke-linecap="round" stroke-linejoin="round" />
    <path d="M3.02441 4.73418C3.01235 4.65351 3.00434 4.5723 3.00041 4.49083C2.99993 3.99882 3.14479 3.51763 3.41681 3.10765C3.68883 2.69767 4.07589 2.37717 4.5294 2.18638C4.98291 1.99559 5.48268 1.943 5.96597 2.03523C6.44926 2.12745 6.89455 2.36036 7.24594 2.70475C7.79645 2.07601 8.49589 1.59542 9.28021 1.30699C10.0645 1.01855 10.9087 0.93149 11.7354 1.05377C12.5621 1.17605 13.3449 1.50376 14.0121 2.0069C14.6794 2.51004 15.2097 3.17253 15.5546 3.93371C15.8996 4.6949 16.048 5.53045 15.9864 6.36385C15.9248 7.19726 15.6551 8.0019 15.202 8.70409C14.7489 9.40628 14.1269 9.98359 13.3929 10.3831C12.659 10.7827 11.8365 10.9918 11.0008 10.9911H4.25047C3.497 10.9917 2.76679 10.7303 2.18487 10.2516C1.60294 9.77302 1.20551 9.10699 1.06062 8.36759C0.915738 7.62819 1.03241 6.86141 1.39066 6.19857C1.74892 5.53573 2.32647 5.01805 3.02441 4.73418V4.73418Z" stroke="#4D3D71" stroke-width="1.2" stroke-linecap="round" stroke-linejoin="round" />
</svg>
