<svg width="17" height="17" viewBox="0 0 17 17" fill="none" xmlns="http://www.w3.org/2000/svg">
    <path d="M12.5 2.41554C11.3681 1.49968 9.95608 1 8.50001 1C7.04394 1 5.63196 1.49968 4.5 2.41554" stroke="#4D3D71" stroke-width="1.2" stroke-linecap="round" stroke-linejoin="round" />
    <path d="M6.1665 4.82494C6.8269 4.29087 7.65052 3.99951 8.49984 3.99951C9.34917 3.99951 10.1728 4.29087 10.8332 4.82494" stroke="#4D3D71" stroke-width="1.2" stroke-linecap="round" stroke-linejoin="round" />
    <path d="M1 9.75001C1 10.2141 1.18438 10.6593 1.51256 10.9874C1.84075 11.3156 2.28587 11.5 2.75001 11.5C3.21414 11.5 3.65926 11.3156 3.98745 10.9874C4.31564 10.6593 4.50001 10.2141 4.50001 9.75001C4.50001 9.28587 4.31564 8.84075 3.98745 8.51256C3.65926 8.18437 3.21414 8 2.75001 8C2.28587 8 1.84075 8.18437 1.51256 8.51256C1.18438 8.84075 1 9.28587 1 9.75001V9.75001Z" stroke="#4D3D71" stroke-width="1.2" stroke-linecap="round" stroke-linejoin="round" />
    <path d="M5.50935 13.8225C5.33255 13.4094 5.06523 13.0414 4.72712 12.7454C4.38901 12.4495 3.98875 12.2333 3.55589 12.1128C3.12304 11.9923 2.66864 11.9706 2.22626 12.0492C1.78388 12.1279 1.36481 12.3049 1 12.5672" stroke="#4D3D71" stroke-width="1.2" stroke-linecap="round" stroke-linejoin="round" />
    <path d="M12.5 9.75001C12.5 9.97982 12.5453 10.2074 12.6332 10.4197C12.7212 10.632 12.8501 10.8249 13.0126 10.9874C13.1751 11.1499 13.368 11.2789 13.5803 11.3668C13.7926 11.4547 14.0202 11.5 14.25 11.5C14.4798 11.5 14.7074 11.4547 14.9197 11.3668C15.132 11.2789 15.3249 11.1499 15.4874 10.9874C15.6499 10.8249 15.7789 10.632 15.8668 10.4197C15.9547 10.2074 16 9.97982 16 9.75001C16 9.52019 15.9547 9.29263 15.8668 9.08031C15.7789 8.86799 15.6499 8.67507 15.4874 8.51256C15.3249 8.35006 15.132 8.22116 14.9197 8.13321C14.7074 8.04526 14.4798 8 14.25 8C14.0202 8 13.7926 8.04526 13.5803 8.13321C13.368 8.22116 13.1751 8.35006 13.0126 8.51256C12.8501 8.67507 12.7212 8.86799 12.6332 9.08031C12.5453 9.29263 12.5 9.52019 12.5 9.75001V9.75001Z" stroke="#4D3D71" stroke-width="1.2" stroke-linecap="round" stroke-linejoin="round" />
    <path d="M11.4907 13.8225C11.6675 13.4094 11.9348 13.0414 12.2729 12.7454C12.6111 12.4495 13.0113 12.2333 13.4442 12.1128C13.877 11.9923 14.3314 11.9706 14.7738 12.0492C15.2162 12.1279 15.6353 12.3049 16.0001 12.5672" stroke="#4D3D71" stroke-width="1.2" stroke-linecap="round" stroke-linejoin="round" />
    <path d="M6.25 9.25049C6.25 9.84723 6.48705 10.4195 6.90901 10.8415C7.33097 11.2634 7.90327 11.5005 8.50001 11.5005C9.09675 11.5005 9.66904 11.2634 10.091 10.8415C10.513 10.4195 10.75 9.84723 10.75 9.25049C10.75 8.65376 10.513 8.08146 10.091 7.6595C9.66904 7.23754 9.09675 7.00049 8.50001 7.00049C7.90327 7.00049 7.33097 7.23754 6.90901 7.6595C6.48705 8.08146 6.25 8.65376 6.25 9.25049V9.25049Z" stroke="#4D3D71" stroke-width="1.2" stroke-linecap="round" stroke-linejoin="round" />
    <path d="M12.5 16.0011C12.3698 15.0325 11.8926 14.1442 11.1569 13.5008C10.4213 12.8575 9.47726 12.5029 8.50001 12.5029C7.52276 12.5029 6.57871 12.8575 5.84308 13.5008C5.10746 14.1442 4.63023 15.0325 4.5 16.0011" stroke="#4D3D71" stroke-width="1.2" stroke-linecap="round" stroke-linejoin="round" />
</svg>
