<svg width="16" height="16" viewBox="0 0 16 16" fill="none" xmlns="http://www.w3.org/2000/svg">
    <path d="M7.53369 1V12.6669" stroke="#4D3D71" stroke-width="1.2" stroke-linecap="round" stroke-linejoin="round" />
    <path d="M7.53369 1.93408H14.5338C14.6225 1.93412 14.7093 1.95941 14.7841 2.00701C14.8589 2.05461 14.9186 2.12254 14.9563 2.20284C14.9939 2.28315 15.0078 2.37251 14.9965 2.46045C14.9851 2.5484 14.949 2.63129 14.8922 2.69943L12.7766 4.43546C12.7067 4.51926 12.6683 4.62496 12.6683 4.73413C12.6683 4.84329 12.7067 4.949 12.7766 5.0328L14.8922 6.76883C14.949 6.83696 14.9851 6.91986 14.9965 7.0078C15.0078 7.09575 14.9939 7.18511 14.9563 7.26541C14.9186 7.34572 14.8589 7.41365 14.7841 7.46124C14.7093 7.50884 14.6225 7.53414 14.5338 7.53417H7.53369" stroke="#4D3D71" stroke-width="1.2" stroke-linecap="round" stroke-linejoin="round" />
    <path d="M9.39391 10.4268C12.0963 10.713 14.0669 11.609 14.0669 12.6668C14.0669 13.9554 11.1424 15.0002 7.53344 15.0002C3.92449 15.0002 1 13.9554 1 12.6668C1 11.6283 2.9003 10.7478 5.52736 10.4454" stroke="#4D3D71" stroke-width="1.2" stroke-linecap="round" stroke-linejoin="round" />
</svg>
