<svg width="18" height="18" viewBox="0 0 18 18" fill="none" xmlns="http://www.w3.org/2000/svg">
    <path d="M10.5998 12.1998H10.0664C9.78354 12.1998 9.51223 12.0874 9.31219 11.8874C9.11215 11.6873 8.99977 11.416 8.99977 11.1331V8.46644C8.99977 8.32499 8.94358 8.18933 8.84356 8.08932C8.74354 7.9893 8.60789 7.93311 8.46644 7.93311H7.93311" stroke="#4D3D71" stroke-width="1.2" stroke-linecap="round" stroke-linejoin="round" />
    <path d="M8.73346 5.2666C8.68072 5.2666 8.62916 5.28224 8.58531 5.31154C8.54146 5.34084 8.50728 5.38249 8.4871 5.43122C8.46691 5.47995 8.46163 5.53356 8.47192 5.58529C8.48221 5.63702 8.50761 5.68454 8.5449 5.72183C8.5822 5.75912 8.62971 5.78452 8.68144 5.79481C8.73317 5.8051 8.78679 5.79982 8.83551 5.77964C8.88424 5.75945 8.92589 5.72527 8.95519 5.68142C8.98449 5.63757 9.00013 5.58601 9.00013 5.53327C9.00013 5.46254 8.97204 5.39472 8.92203 5.34471C8.87202 5.2947 8.80419 5.2666 8.73346 5.2666Z" stroke="#4D3D71" stroke-width="1.2" stroke-linecap="round" stroke-linejoin="round" />
    <path d="M1 9C1 11.1217 1.84285 13.1566 3.34315 14.6569C4.84344 16.1571 6.87827 17 9 17C11.1217 17 13.1566 16.1571 14.6569 14.6569C16.1571 13.1566 17 11.1217 17 9C17 6.87827 16.1571 4.84344 14.6569 3.34315C13.1566 1.84285 11.1217 1 9 1C6.87827 1 4.84344 1.84285 3.34315 3.34315C1.84285 4.84344 1 6.87827 1 9V9Z" stroke="#4D3D71" stroke-width="1.2" stroke-linecap="round" stroke-linejoin="round" />
</svg>
