<svg width="17" height="17" viewBox="0 0 17 17" fill="none" xmlns="http://www.w3.org/2000/svg">
    <path d="M1 10.0073V16.0124" stroke="#4D3D71" stroke-width="1.2" stroke-linecap="round" stroke-linejoin="round" />
    <path d="M1 15.0122H11.0084C11.0084 14.4813 10.7975 13.9721 10.4222 13.5968C10.0468 13.2214 9.53763 13.0105 9.00675 13.0105H6.50531C6.50531 12.4796 6.29442 11.9705 5.91903 11.5951C5.54364 11.2197 5.0345 11.0088 4.50362 11.0088H1" stroke="#4D3D71" stroke-width="1.2" stroke-linecap="round" stroke-linejoin="round" />
    <path d="M4.50293 13.0103H6.50462" stroke="#4D3D71" stroke-width="1.2" stroke-linecap="round" stroke-linejoin="round" />
    <path d="M9.00049 3.75232C9.00049 4.11376 9.07168 4.47166 9.21 4.80559C9.34831 5.13952 9.55105 5.44293 9.80662 5.69851C10.0622 5.95408 10.3656 6.15682 10.6995 6.29513C11.0335 6.43345 11.3914 6.50464 11.7528 6.50464C12.1142 6.50464 12.4721 6.43345 12.8061 6.29513C13.14 6.15682 13.4434 5.95408 13.699 5.69851C13.9546 5.44293 14.1573 5.13952 14.2956 4.80559C14.4339 4.47166 14.5051 4.11376 14.5051 3.75232C14.5051 3.39088 14.4339 3.03298 14.2956 2.69905C14.1573 2.36513 13.9546 2.06171 13.699 1.80614C13.4434 1.55056 13.14 1.34783 12.8061 1.20951C12.4721 1.07119 12.1142 1 11.7528 1C11.3914 1 11.0335 1.07119 10.6995 1.20951C10.3656 1.34783 10.0622 1.55056 9.80662 1.80614C9.55105 2.06171 9.34831 2.36513 9.21 2.69905C9.07168 3.03298 9.00049 3.39088 9.00049 3.75232V3.75232Z" stroke="#4D3D71" stroke-width="1.2" stroke-linecap="round" stroke-linejoin="round" />
    <path d="M15.9997 10.5082C15.6889 9.63021 15.1137 8.87014 14.3531 8.33257C13.5926 7.795 12.6841 7.50635 11.7528 7.50635C10.8214 7.50635 9.91297 7.795 9.15243 8.33257C8.39188 8.87014 7.81664 9.63021 7.50586 10.5082" stroke="#4D3D71" stroke-width="1.2" stroke-linecap="round" stroke-linejoin="round" />
</svg>
