<svg width="17" height="23" viewBox="0 0 17 23" fill="none" xmlns="http://www.w3.org/2000/svg">
    <path d="M1 9.40039H16V22.0004H1V9.40039Z" stroke="#AAA8A8" stroke-width="1.2" stroke-linecap="round" stroke-linejoin="round" />
    <path d="M3.72705 9.39998V5.89999C3.72705 4.60043 4.22989 3.3541 5.12495 2.43517C6.02001 1.51625 7.23397 1 8.49978 1C9.76558 1 10.9795 1.51625 11.8746 2.43517C12.7697 3.3541 13.2725 4.60043 13.2725 5.89999V9.39998" stroke="#AAA8A8" stroke-width="1.2" stroke-linecap="round" stroke-linejoin="round" />
    <path d="M8.50009 15C8.43266 15 8.36675 15.0205 8.31069 15.059C8.25463 15.0974 8.21093 15.1521 8.18513 15.2161C8.15933 15.28 8.15258 15.3504 8.16573 15.4183C8.17888 15.4862 8.21135 15.5485 8.25903 15.5975C8.30671 15.6464 8.36745 15.6798 8.43358 15.6933C8.49971 15.7068 8.56826 15.6998 8.63055 15.6734C8.69284 15.6469 8.74608 15.602 8.78354 15.5444C8.821 15.4869 8.841 15.4192 8.841 15.35C8.84112 15.304 8.83238 15.2584 8.81529 15.2159C8.7982 15.1734 8.7731 15.1348 8.74141 15.1022C8.70973 15.0697 8.67211 15.0439 8.63069 15.0264C8.58928 15.0088 8.54489 14.9999 8.50009 15V15Z" stroke="#AAA8A8" stroke-width="1.2" stroke-linecap="round" stroke-linejoin="round" />
</svg>
    