<svg width="17" height="17" viewBox="0 0 17 17" fill="none" xmlns="http://www.w3.org/2000/svg">
    <path d="M1 8.5C1 10.4891 1.79018 12.3968 3.1967 13.8033C4.60322 15.2098 6.51088 16 8.5 16C10.4891 16 12.3968 15.2098 13.8033 13.8033C15.2098 12.3968 16 10.4891 16 8.5C16 6.51088 15.2098 4.60322 13.8033 3.1967C12.3968 1.79018 10.4891 1 8.5 1C6.51088 1 4.60322 1.79018 3.1967 3.1967C1.79018 4.60322 1 6.51088 1 8.5V8.5Z" stroke="#4D3D71" stroke-width="1.2" stroke-linecap="round" stroke-linejoin="round" />
    <path d="M8.9788 4.78727L10.0068 7.0026H12.0068C12.1077 6.99864 12.2073 7.02593 12.292 7.08073C12.3768 7.13554 12.4426 7.21518 12.4804 7.30878C12.5182 7.40237 12.5261 7.50536 12.5032 7.60365C12.4802 7.70195 12.4275 7.79075 12.3521 7.85793L10.6188 9.56593L11.5808 11.7753C11.6228 11.8764 11.632 11.9882 11.6072 12.0949C11.5824 12.2015 11.5248 12.2978 11.4425 12.37C11.3601 12.4422 11.2573 12.4869 11.1483 12.4976C11.0393 12.5084 10.9296 12.4847 10.8348 12.4299L8.51013 11.1226L6.1828 12.4299C6.08795 12.4847 5.97833 12.5084 5.86934 12.4976C5.76034 12.4869 5.65745 12.4422 5.57513 12.37C5.49281 12.2978 5.4352 12.2015 5.41039 12.0949C5.38557 11.9882 5.39481 11.8764 5.4368 11.7753L6.3988 9.56727L4.66547 7.85927C4.58953 7.79258 4.53611 7.70403 4.51253 7.60576C4.48895 7.5075 4.49637 7.40434 4.53378 7.31046C4.57118 7.21658 4.63674 7.13659 4.72143 7.08146C4.80613 7.02634 4.90582 6.99879 5.0068 7.0026H7.0068L8.03347 4.78727C8.07859 4.70093 8.1465 4.6286 8.22983 4.57813C8.31316 4.52766 8.40871 4.50098 8.50613 4.50098C8.60355 4.50098 8.69911 4.52766 8.78244 4.57813C8.86576 4.6286 8.93368 4.70093 8.9788 4.78727V4.78727Z" stroke="#4D3D71" stroke-width="1.2" stroke-linecap="round" stroke-linejoin="round" />
</svg>
