<svg width="20" height="23" viewBox="0 0 20 23" fill="none" xmlns="http://www.w3.org/2000/svg">
    <path d="M5.15381 5.89999C5.15381 7.19955 5.66438 8.44588 6.57321 9.36481C7.48204 10.2837 8.71468 10.8 9.99996 10.8C11.2852 10.8 12.5179 10.2837 13.4267 9.36481C14.3355 8.44588 14.8461 7.19955 14.8461 5.89999C14.8461 4.60043 14.3355 3.3541 13.4267 2.43517C12.5179 1.51625 11.2852 1 9.99996 1C8.71468 1 7.48204 1.51625 6.57321 2.43517C5.66438 3.3541 5.15381 4.60043 5.15381 5.89999V5.89999Z" stroke="#AAA8A8" stroke-width="1.2" stroke-linecap="round" stroke-linejoin="round" />
    <path d="M1 22.0004C1 19.5869 1.94821 17.2723 3.63604 15.5657C5.32387 13.8591 7.61305 12.9004 10 12.9004C12.3869 12.9004 14.6761 13.8591 16.364 15.5657C18.0518 17.2723 19 19.5869 19 22.0004" stroke="#AAA8A8" stroke-width="1.2" stroke-linecap="round" stroke-linejoin="round" />
</svg>
    