<svg width="126" height="52" viewBox="0 0 126 52" fill="none" xmlns="http://www.w3.org/2000/svg">
<path d="M16.464 26H19.432L11.536 6.148H8.372L0.476 26H3.416L5.516 20.456H14.308L16.464 26ZM9.884 9.004L13.328 17.908H6.496L9.884 9.004ZM23.5261 19.224C23.5261 16.452 25.0941 14.492 27.5021 14.492C29.9101 14.492 31.3661 16.396 31.3661 19.168C31.3661 21.94 29.8821 24.04 27.4741 24.04C24.9541 24.04 23.5261 21.996 23.5261 19.224ZM31.3941 24.18C31.3941 24.992 31.4781 25.692 31.5341 26H34.0821C34.0541 25.776 33.9421 24.796 33.9421 23.508V5.728H31.3381V14.436C30.8901 13.344 29.6021 12.168 27.2221 12.168C23.4141 12.168 20.8381 15.416 20.8381 19.224C20.8381 23.228 23.2741 26.364 27.2221 26.364C29.3221 26.364 30.7501 25.244 31.3941 23.956V24.18ZM40.8258 26V17.88C40.8258 15.864 42.0858 14.464 43.9618 14.464C45.9778 14.464 46.8178 15.808 46.8178 17.544V26H49.4498V17.852C49.4498 15.92 50.7098 14.464 52.5577 14.464C54.5458 14.464 55.4138 15.78 55.4138 17.544V26H58.0178V17.264C58.0178 13.736 55.7218 12.14 53.3698 12.14C51.6618 12.14 49.9258 12.756 48.8618 14.688C48.1338 12.952 46.5098 12.14 44.8298 12.14C43.2618 12.14 41.5818 12.84 40.7418 14.324V12.532H38.2218V26H40.8258ZM64.7242 26V12.532H62.1202V26H64.7242ZM61.5322 7.436C61.5322 8.472 62.3722 9.312 63.4082 9.312C64.4722 9.312 65.3122 8.472 65.3122 7.436C65.3122 6.372 64.4722 5.532 63.4082 5.532C62.3722 5.532 61.5322 6.372 61.5322 7.436ZM71.6155 18.216C71.6155 16.172 72.6795 14.52 74.7515 14.52C77.1035 14.52 77.8875 16.032 77.8875 17.908V26H80.5195V17.46C80.5195 14.464 78.9235 12.14 75.7035 12.14C74.1355 12.14 72.5395 12.784 71.5595 14.464V12.532H68.9835V26H71.6155V18.216Z" fill="#4D3D71"/>
</svg>
